<?xml version="1.0" standalone="no"?>
<!DOCTYPE svg PUBLIC "-//W3C//DTD SVG 20010904//EN"
 "http://www.w3.org/TR/2001/REC-SVG-20010904/DTD/svg10.dtd">
<svg version="1.0" xmlns="http://www.w3.org/2000/svg"
 width="512.000000pt" height="512.000000pt" viewBox="0 0 512.000000 512.000000"
 preserveAspectRatio="xMidYMid meet">
<metadata>
Created by potrace 1.14, written by Peter Selinger 2001-2017
</metadata>
<g transform="translate(0.000000,512.000000) scale(0.100000,-0.100000)"
fill="#000000" stroke="none">
<path d="M1130 4886 c-230 -52 -412 -230 -446 -436 -10 -62 -11 -3692 -1
-3760 19 -127 75 -232 169 -314 69 -60 122 -90 218 -124 l75 -27 1590 -3
c1111 -2 1601 0 1627 8 48 14 78 52 78 101 0 54 -50 95 -122 98 -29 1 -54 4
-57 6 -2 3 -4 145 -4 316 l0 312 54 4 c59 4 90 20 116 59 16 25 17 148 17
1859 0 1738 -1 1834 -18 1860 -38 58 55 55 -1663 54 -1207 -1 -1591 -4 -1633
-13z m135 -1471 c1 -1183 2 -1272 18 -1296 47 -70 159 -69 201 2 17 29 18 98
19 1297 l2 1267 853 3 c842 2 854 2 879 -18 14 -11 69 -60 122 -108 53 -49
139 -127 191 -173 52 -46 101 -91 110 -99 9 -8 56 -51 105 -95 48 -44 93 -84
99 -90 6 -5 72 -64 146 -130 74 -66 148 -133 165 -148 l30 -29 1 -811 1 -812
-41 -40 c-23 -22 -80 -74 -126 -116 -122 -109 -179 -160 -210 -189 -16 -14
-61 -54 -101 -90 -40 -36 -84 -76 -98 -89 -14 -12 -57 -51 -95 -85 -38 -33
-81 -72 -96 -86 -63 -58 -177 -160 -199 -179 -14 -13 -39 -21 -60 -22 -54 0
-1600 0 -1643 0 l-36 1 0 258 c0 142 -3 273 -7 290 -15 69 -104 104 -174 68
-53 -28 -56 -48 -55 -340 0 -148 -4 -270 -9 -273 -5 -3 -27 -7 -50 -9 -91 -9
-159 -29 -226 -65 -30 -16 -57 -29 -61 -29 -7 0 -5 3236 2 3260 25 82 80 152
156 197 46 27 122 50 162 49 l25 -1 0 -1270z m2940 982 c-1 -161 -3 -293 -3
-295 -1 -2 -12 7 -24 20 -13 13 -63 59 -113 103 -49 44 -97 87 -105 95 -8 8
-55 51 -105 95 -49 44 -110 98 -135 121 -25 23 -68 61 -97 85 -28 24 -54 50
-57 57 -4 10 59 12 317 12 l323 -1 -1 -292z m1 -2827 l0 -290 -25 -1 c-125 -3
-614 1 -618 5 -4 3 5 14 18 25 13 10 36 29 50 42 81 75 143 131 203 184 37 33
78 69 90 80 235 213 270 244 277 245 3 0 6 -130 5 -290z m-185 -514 c1 -16 1
-534 0 -584 l-1 -42 -1417 2 -1418 3 -56 23 c-54 21 -75 36 -127 84 -28 25
-70 96 -75 123 -1 11 -5 25 -8 30 -7 12 -4 89 5 129 26 111 154 219 280 235
92 12 2816 9 2817 -3z"/>
<path d="M3072 3841 l0 -138 39 -23 c33 -18 40 -27 37 -48 -2 -22 -8 -27 -32
-27 -23 0 -33 7 -49 35 -77 139 -173 297 -186 307 -24 17 -26 1 -23 -135 l3
-119 35 -16 c28 -14 34 -22 34 -47 0 -16 -3 -30 -7 -31 -5 0 -26 -2 -48 -3
-82 -6 -161 -70 -185 -149 -37 -124 -38 -124 -240 78 -91 91 -169 165 -173
165 -14 0 -243 -236 -277 -284 -56 -83 -73 -140 -76 -261 -3 -125 13 -191 68
-282 30 -49 33 -52 50 -36 10 9 18 20 18 24 0 13 60 110 84 137 35 40 82 55
169 57 l81 1 33 54 c73 124 110 141 281 131 23 -1 482 -457 487 -483 5 -26
-33 -50 -57 -37 -11 6 -94 84 -184 174 -137 136 -174 167 -217 184 -168 63
-338 -53 -340 -234 0 -95 24 -134 182 -294 122 -123 139 -145 132 -164 -5 -13
-18 -23 -32 -25 -20 -2 -47 20 -135 108 l-110 110 -112 -110 c-102 -99 -162
-181 -162 -219 0 -8 80 -11 288 -11 260 1 291 3 327 20 56 27 82 52 104 101
24 52 22 129 -4 179 -10 19 -83 101 -163 182 -140 143 -144 148 -130 170 9 13
23 25 33 26 11 3 71 -50 176 -154 203 -202 211 -217 219 -400 l5 -131 57 -56
57 -57 81 0 c44 0 80 3 80 6 0 4 -14 30 -30 60 -33 56 -51 67 -115 68 -50 1
-51 12 -6 92 l34 62 50 -2 50 -1 1 -86 1 -85 59 -57 58 -57 79 0 c44 0 79 3
79 6 0 4 -13 30 -30 59 -33 58 -57 73 -112 69 -21 -1 -40 2 -43 6 -3 5 8 35
25 67 32 61 35 64 89 152 44 72 58 116 55 171 -4 86 -22 109 -335 420 -271
270 -298 300 -290 322 5 14 18 24 34 26 21 3 58 -30 232 -202 114 -114 214
-206 224 -206 24 0 74 25 94 48 27 29 44 84 43 137 -1 44 -4 50 -26 56 -14 3
-34 5 -46 2 -11 -2 -31 5 -45 15 -22 18 -24 30 -29 119 l-5 98 -130 225 c-130
228 -163 280 -176 280 -3 0 -7 -62 -7 -139z m218 -500 c7 -14 5 -25 -10 -44
-23 -29 -57 -29 -74 0 -17 30 -15 42 11 63 28 22 54 15 73 -19z"/>
</g>
</svg>
